<?xml version="1.0" encoding="UTF-8"?>
<svg xmlns="http://www.w3.org/2000/svg" width="512" height="512" viewBox="0 0 512 512">
<path d="M196,232 C209.255,232 220,242.745 220,256 C220,269.255 209.255,280 196,280 C182.745,280 172,269.255 172,256 C172,242.745 182.745,232 196,232 M256,232 C269.255,232 280,242.745 280,256 C280,269.255 269.255,280 256,280 C242.745,280 232,269.255 232,256 C232,242.745 242.745,232 256,232 M316,232 C329.255,232 340,242.745 340,256 C340,269.255 329.255,280 316,280 C302.745,280 292,269.255 292,256 C292,242.745 302.745,232 316,232"/>
</svg>
